<?xml version="1.0" standalone="no"?>
<!DOCTYPE svg PUBLIC "-//W3C//DTD SVG 20010904//EN"
 "http://www.w3.org/TR/2001/REC-SVG-20010904/DTD/svg10.dtd">
<svg version="1.0" xmlns="http://www.w3.org/2000/svg"
 width="1280.000000pt" height="1280.000000pt" viewBox="0 0 1280.000000 1280.000000"
 preserveAspectRatio="xMidYMid meet">
<metadata>
Created by potrace 1.14, written by Peter Selinger 2001-2017
</metadata>
<g transform="translate(0.000000,1280.000000) scale(0.100000,-0.100000)"
fill="#000000" stroke="none">
<path d="M1529 11146 c-2 -2 -33 -6 -69 -10 -36 -3 -76 -8 -90 -11 -54 -12
-76 -17 -92 -18 -10 -1 -18 -5 -18 -10 0 -4 -4 -6 -8 -3 -22 14 -400 -139
-410 -165 -2 -5 -12 -9 -23 -9 -11 0 -22 -7 -25 -15 -4 -8 -10 -15 -16 -15 -9
0 -91 -53 -115 -75 -6 -5 -26 -21 -44 -35 -50 -38 -239 -226 -239 -238 0 -6
-3 -12 -8 -14 -10 -4 -72 -84 -72 -92 0 -4 -8 -16 -19 -27 -10 -11 -27 -37
-37 -57 -11 -20 -22 -39 -25 -42 -25 -20 -140 -292 -153 -360 -2 -14 -9 -38
-15 -54 -7 -16 -9 -31 -7 -33 3 -3 1 -15 -4 -27 -4 -13 -11 -40 -15 -62 -4
-21 -9 -50 -13 -64 -3 -14 -7 -1833 -9 -4043 l-3 -4017 5662 3 c3115 1 5674 5
5688 9 14 5 45 10 70 13 25 3 53 8 62 11 29 9 63 16 81 17 9 1 17 6 17 11 0 5
2 7 6 4 8 -9 137 34 229 77 17 7 32 13 35 13 3 -1 24 11 47 25 24 15 47 27 53
27 5 0 10 5 10 12 0 6 3 8 6 5 6 -6 151 89 215 140 54 43 279 275 279 288 0 4
13 23 29 43 28 35 140 217 141 227 0 3 11 29 24 57 24 53 64 160 72 188 41
159 42 162 49 210 3 20 9 47 13 60 3 14 8 1833 9 4043 l3 4017 -5633 0 c-3099
0 -5636 -2 -5638 -4z m10676 -4324 c-1 -3480 -2 -3691 -19 -3766 -17 -75 -29
-115 -63 -196 -65 -159 -203 -329 -349 -430 -40 -27 -77 -50 -83 -50 -6 0 -11
-4 -11 -10 0 -5 -9 -10 -20 -10 -11 0 -20 -4 -20 -9 0 -5 -8 -11 -17 -14 -10
-3 -55 -19 -99 -35 -45 -16 -103 -33 -130 -37 -27 -5 -56 -10 -64 -13 -17 -5
-10730 -10 -10745 -5 -12 4 -13 312 -1 331 4 7 3 12 -2 12 -11 0 -10 50 1 68
5 6 4 12 -1 12 -11 0 -10 50 1 68 5 6 4 12 -1 12 -11 0 -10 50 1 68 5 6 4 12
-1 12 -11 0 -10 50 1 68 5 6 4 12 -1 12 -11 0 -10 50 1 68 5 6 4 12 -1 12 -11
0 -10 50 1 68 5 6 4 12 -1 12 -11 0 -10 50 1 67 5 7 5 13 0 13 -10 0 -9 1332
1 1348 4 7 3 12 -2 12 -11 0 -10 50 1 68 5 6 4 12 -1 12 -11 0 -10 50 1 68 5
6 4 12 -1 12 -11 0 -10 50 1 68 5 6 4 12 -1 12 -11 0 -10 50 1 68 5 6 4 12 -1
12 -11 0 -10 50 1 68 5 6 4 12 -1 12 -11 0 -10 50 1 68 5 6 4 12 -1 12 -11 0
-10 50 1 68 5 6 5 12 0 12 -10 0 -9 1332 1 1348 4 7 3 12 -2 12 -11 0 -10 50
1 68 5 6 4 12 -1 12 -11 0 -10 50 1 68 5 6 4 12 -1 12 -11 0 -10 50 1 68 5 6
4 12 -1 12 -11 0 -10 50 1 68 5 6 4 12 -1 12 -11 0 -10 50 1 68 5 6 4 12 -1
12 -11 0 -10 50 1 68 5 6 4 12 -1 12 -11 0 -10 50 1 68 5 6 5 12 0 12 -10 0
-9 1332 1 1348 4 7 3 12 -2 12 -11 0 -10 50 1 68 5 6 4 12 -1 12 -11 0 -10 50
1 68 5 6 4 12 -1 12 -11 0 -10 50 1 68 5 6 4 12 -1 12 -11 0 -10 50 1 68 5 6
4 12 -1 12 -11 0 -10 50 1 68 5 6 4 12 -1 12 -11 0 -10 50 1 68 5 6 4 12 -1
12 -11 0 -10 50 1 68 5 6 5 12 0 12 -8 0 -7 626 1 695 20 156 64 282 148 425
51 88 168 212 268 285 53 38 212 128 222 124 2 0 17 5 33 11 17 7 35 13 40 14
93 21 165 36 185 39 14 2 2433 4 5376 4 l5350 1 -1 -3686z"/>
<path d="M2866 9723 c-3 -4 -35 -6 -71 -6 -36 1 -65 -2 -66 -6 0 -3 -1 -44 -2
-89 -2 -89 4 -103 46 -108 81 -9 189 -103 223 -193 20 -53 20 -63 18 -2925 -1
-1579 -3 -2878 -5 -2886 -9 -32 -51 -110 -60 -110 -5 0 -9 -6 -9 -12 -1 -31
-140 -110 -197 -111 -15 0 -14 3 -16 -100 -1 -44 1 -83 4 -89 5 -7 259 -11
519 -7 8 0 67 0 132 -1 64 -1 121 1 127 4 6 4 11 3 11 -3 0 -6 11 -6 29 -1 16
4 31 6 34 4 3 -4 149 -5 247 -3 8 0 159 0 335 -1 176 0 413 0 526 0 l207 0 -2
97 c-1 79 -4 98 -16 99 -8 1 -17 2 -20 3 -3 1 -15 4 -28 7 -13 2 -42 14 -65
25 -23 12 -52 27 -64 33 -13 6 -23 15 -23 19 0 5 -4 6 -9 3 -9 -6 -61 55 -61
72 0 5 -7 15 -15 22 -9 7 -14 19 -11 25 2 7 0 17 -6 23 -5 5 -10 30 -11 56 -1
25 -4 46 -7 46 -3 0 -4 26 -2 57 4 84 4 135 -1 158 -2 11 -1 29 4 41 4 11 4
27 -1 34 -5 7 -5 23 0 35 5 12 4 28 0 35 -5 8 -5 19 1 26 6 7 6 15 1 18 -10 6
-8 48 3 65 3 6 3 11 -2 11 -4 0 -7 26 -5 57 5 110 5 144 -1 150 -4 3 -2 12 4
20 6 7 7 13 3 13 -8 0 -9 43 -1 143 1 20 0 37 -4 37 -8 0 -5 32 5 48 4 6 3 12
-2 12 -8 0 -7 63 2 87 3 7 2 13 -3 13 -9 0 -8 31 3 48 4 6 3 12 -2 12 -8 0 -7
63 2 87 3 7 2 13 -3 13 -9 0 -8 31 3 48 4 6 3 12 -2 12 -8 0 -7 63 2 87 3 7 2
13 -3 13 -9 0 -8 31 3 48 4 6 4 12 -1 12 -4 0 -7 26 -5 57 4 86 3 136 -1 158
-2 11 -1 29 4 41 4 11 4 27 -1 34 -5 7 -5 23 0 35 5 12 4 28 0 35 -5 8 -5 19
1 26 6 7 6 15 1 18 -10 6 -8 48 3 65 3 6 3 11 -2 11 -4 0 -7 26 -5 58 4 83 4
134 -1 157 -2 11 -1 29 4 41 4 11 4 27 -1 34 -5 7 -5 23 0 35 5 12 4 28 0 35
-5 8 -5 19 1 26 6 7 6 15 1 18 -10 6 -8 48 3 65 3 6 3 11 -2 11 -4 0 -7 26 -5
58 5 109 5 143 -1 149 -4 3 -2 12 4 20 6 7 7 13 3 13 -8 0 -9 43 -1 143 1 20
0 37 -4 37 -8 0 -5 32 5 48 4 6 3 12 -2 12 -8 0 -7 63 2 87 3 7 2 13 -3 13 -9
0 -8 31 3 48 4 6 3 12 -2 12 -8 0 -7 63 2 87 3 7 2 13 -3 13 -9 0 -8 31 3 48
4 6 3 12 -2 12 -8 0 -7 63 2 87 3 7 2 13 -3 13 -9 0 -8 31 3 48 4 6 4 12 -1
12 -4 0 -7 26 -5 57 4 86 3 136 -1 158 -2 11 -1 29 4 41 4 11 4 27 -1 34 -5 7
-5 23 0 35 5 12 4 28 0 35 -5 8 -5 19 1 26 6 7 6 15 1 18 -10 6 -8 48 3 65 3
6 3 11 -2 11 -4 0 -7 26 -5 58 4 83 4 134 -1 157 -2 11 -1 29 4 41 4 11 4 27
-1 34 -5 7 -5 23 0 35 5 12 4 28 0 35 -5 8 -5 19 1 26 6 7 6 15 1 18 -10 6 -8
48 3 65 3 6 3 11 -2 11 -4 0 -7 26 -5 58 5 109 5 143 -1 149 -4 3 -2 12 4 20
6 7 7 13 3 13 -8 0 -9 43 -1 143 1 20 0 37 -4 37 -8 0 -5 32 5 48 4 6 3 12 -2
12 -8 0 -7 63 2 87 3 7 2 13 -3 13 -9 0 -8 31 3 48 4 6 3 12 -2 12 -9 0 -7 69
3 78 8 9 2894 6 2935 -2 19 -4 42 -8 50 -10 9 -1 20 -5 26 -8 6 -4 21 -9 35
-11 36 -7 179 -86 179 -99 0 -5 4 -8 10 -8 29 0 195 -168 251 -255 52 -81 79
-141 110 -245 30 -106 35 -305 10 -412 -10 -43 -16 -80 -13 -83 3 -3 0 -5 -6
-5 -7 0 -12 -7 -12 -16 0 -51 -113 -237 -192 -317 -58 -57 -141 -127 -152
-127 -4 0 -31 -11 -59 -24 -29 -13 -92 -38 -142 -55 -49 -18 -105 -39 -123
-47 -23 -10 -72 -14 -168 -14 l-135 0 -20 35 c-12 19 -25 35 -30 35 -5 0 -9 7
-9 15 0 8 -4 15 -10 15 -5 0 -10 6 -10 14 0 8 -3 16 -7 18 -5 2 -37 44 -73 93
-35 50 -68 92 -72 93 -4 2 -8 8 -8 14 0 5 -6 16 -12 23 -7 8 -31 39 -53 70
-22 31 -57 78 -77 105 -21 27 -38 54 -38 60 0 5 -3 10 -7 10 -5 0 -19 17 -33
38 -27 40 -83 116 -106 145 -8 9 -14 22 -14 27 0 6 -3 10 -7 10 -5 0 -19 17
-33 38 -20 30 -130 181 -148 202 -2 3 -363 5 -802 5 l-799 1 17 -28 c15 -24
124 -173 313 -429 35 -48 71 -97 79 -109 8 -12 20 -28 25 -34 6 -6 78 -103
160 -216 82 -113 164 -223 182 -246 18 -23 33 -46 33 -51 0 -6 -65 -10 -177
-9 -114 1 -180 -3 -187 -10 -11 -11 -15 -1098 -4 -1109 3 -3 255 -6 561 -6
l556 0 116 -169 c63 -94 115 -175 115 -182 0 -6 3 -8 6 -5 4 4 14 -7 23 -24
24 -45 233 -353 245 -361 6 -4 7 -8 3 -8 -4 0 1 -10 13 -22 11 -12 20 -25 20
-29 0 -4 6 -14 13 -21 7 -7 24 -32 37 -55 13 -24 27 -43 32 -43 4 0 8 -6 8
-14 0 -8 3 -16 8 -18 10 -5 72 -97 72 -108 0 -6 4 -10 8 -10 5 0 15 -12 23
-27 8 -16 22 -37 32 -47 9 -11 17 -25 17 -32 0 -7 4 -14 8 -16 7 -2 97 -132
274 -397 10 -14 23 -36 29 -48 7 -13 16 -23 21 -23 4 0 8 -5 8 -10 0 -12 41
-73 53 -78 4 -2 7 -10 7 -18 0 -8 4 -14 9 -14 5 0 14 -13 20 -28 7 -15 23 -40
36 -55 14 -14 25 -29 25 -33 0 -10 168 -232 199 -263 31 -33 63 -105 63 -146
0 -45 -29 -103 -74 -148 -21 -21 -38 -36 -38 -33 0 3 -16 -2 -35 -10 -19 -7
-48 -14 -64 -14 -26 0 -29 -4 -33 -35 -2 -19 -1 -41 3 -47 4 -7 4 -19 -1 -28
-5 -9 -6 -20 -2 -26 5 -6 434 -9 1207 -8 660 1 1205 2 1210 3 9 1 10 130 1
139 -2 1 -28 5 -57 7 -69 6 -111 15 -126 27 -7 6 -13 8 -13 4 0 -9 -99 43
-140 73 -30 22 -128 121 -178 179 -10 11 -42 47 -72 82 -30 35 -61 72 -69 84
-8 12 -18 23 -21 26 -17 14 -170 236 -170 247 0 7 -4 13 -9 13 -5 0 -14 13
-21 30 -7 16 -16 30 -21 30 -5 0 -9 5 -9 10 0 6 -24 45 -52 86 -29 42 -60 86
-68 99 -31 49 -204 300 -209 305 -4 3 -42 59 -86 125 -44 66 -82 122 -86 125
-3 3 -15 22 -28 43 -13 21 -30 44 -38 52 -8 8 -12 15 -8 15 3 0 -6 12 -20 27
-14 15 -25 33 -25 40 0 7 -4 13 -10 13 -5 0 -10 6 -10 14 0 8 -3 16 -7 18 -5
2 -21 23 -38 48 -16 25 -33 47 -36 50 -3 3 -14 20 -24 38 -11 17 -23 32 -27
32 -4 0 -8 5 -8 10 0 6 -26 47 -57 93 -32 45 -62 89 -68 98 -28 46 -120 174
-127 177 -4 2 -8 8 -8 12 0 5 -51 83 -114 174 -63 91 -112 166 -108 167 4 0
14 2 22 4 34 7 77 16 110 21 19 3 38 8 41 10 3 2 21 6 40 9 19 3 42 8 51 11 9
3 27 7 40 10 39 9 53 12 53 14 0 1 7 3 15 5 29 6 185 57 215 70 62 26 100 40
108 37 4 -1 7 3 7 8 0 6 5 10 12 10 36 0 269 135 393 228 71 53 285 269 285
287 0 7 4 15 8 17 23 9 147 222 189 324 38 90 93 277 107 362 32 188 37 249
38 487 0 154 -5 245 -16 300 -2 11 -7 40 -11 65 -6 41 -31 140 -53 215 -13 43
-60 160 -94 235 -43 94 -51 114 -50 123 1 4 -2 7 -8 7 -6 0 -9 3 -8 8 5 16
-124 222 -144 230 -4 2 -8 8 -8 14 0 14 -185 198 -230 228 -19 13 -37 27 -40
30 -3 3 -23 17 -45 30 -22 13 -46 30 -53 37 -7 7 -18 13 -24 13 -5 0 -23 9
-39 21 -16 11 -29 18 -29 14 0 -3 -10 3 -22 15 -12 11 -26 20 -31 20 -5 0 -41
15 -80 34 -67 33 -125 58 -137 60 -3 1 -9 4 -15 7 -13 8 -189 63 -235 74 -3 0
-23 5 -45 10 -22 5 -42 9 -45 10 -20 5 -186 31 -265 41 -22 3 -56 7 -75 9 -19
3 -66 8 -105 11 -97 9 -120 12 -120 14 0 1 -27 3 -60 5 -33 2 -91 6 -130 9
-125 11 -583 30 -630 27 -5 -1 -27 -2 -48 -4 -21 -1 -41 1 -43 5 -3 5 -10 5
-16 2 -14 -9 -182 -9 -196 0 -7 4 -12 3 -12 -1 0 -10 -53 -9 -69 2 -6 3 -11 2
-11 -2 0 -10 -53 -9 -69 2 -6 3 -11 2 -11 -2 0 -5 -15 -8 -32 -6 -18 2 -40 4
-48 3 -8 0 -28 0 -45 1 -16 1 -34 1 -40 0 -60 -6 -87 -5 -91 1 -3 5 -10 5 -16
2 -14 -9 -182 -9 -196 0 -7 4 -12 3 -12 -1 0 -10 -53 -9 -69 2 -6 3 -11 2 -11
-2 0 -10 -53 -9 -69 2 -6 3 -11 2 -11 -2 0 -5 -15 -8 -32 -6 -18 2 -40 4 -48
3 -8 0 -28 0 -45 1 -16 1 -34 1 -40 0 -60 -6 -87 -5 -91 1 -3 5 -10 5 -16 2
-14 -9 -182 -9 -196 0 -7 4 -12 3 -12 -1 0 -5 -15 -7 -32 -5 -18 2 -42 3 -53
3 -11 0 -49 -1 -85 0 -36 0 -72 0 -80 -1 -8 0 -44 0 -80 0 -36 1 -72 1 -80 0
-8 0 -44 0 -80 0 -36 1 -72 1 -80 0 -8 0 -62 0 -120 0 -117 1 -111 1 -163 -3
-21 -1 -41 1 -43 5 -3 5 -10 5 -16 2 -14 -9 -182 -9 -196 0 -7 4 -12 3 -12 -1
0 -5 -15 -8 -32 -6 -18 2 -40 4 -48 3 -8 0 -28 0 -45 1 -16 1 -34 1 -40 0 -60
-6 -87 -5 -91 1 -3 5 -10 5 -16 2 -14 -9 -182 -9 -196 0 -7 4 -12 3 -12 -1 0
-5 -15 -8 -32 -6 -18 2 -40 4 -48 3 -8 0 -28 0 -45 1 -16 1 -34 1 -40 0 -58
-6 -87 -6 -91 0 -2 4 -17 4 -32 0 -15 -4 -36 -6 -47 -5 -32 3 -172 6 -235 4
-94 -2 -140 -1 -148 4 -5 3 -12 3 -16 -1z"/>
</g>
</svg>
