<svg xmlns="http://www.w3.org/2000/svg" width="397.76" height="341.28" viewBox="0 0 397.76 341.28"><title>logo blanco</title><path d="M492.46,610c0-2.71-.59-3.66-3.53-3.66q-79,.14-158,.07v0c-51.58,0-103.16.09-154.73,0-20.45,0-37.85,12.4-44.88,31.65a50.72,50.72,0,0,0-2.69,17.62q0,107.29,0,214.57c0,5.87,0,5.87,5.7,6.14.88,0,1.76.09,2.65.09q153.84,0,307.7,0a45.12,45.12,0,0,0,30.46-11.14c11.21-9.66,17.2-21.63,17.28-36.31.17-34.78.11-69.56.09-104.34C492.52,686.47,492.43,648.25,492.46,610ZM458.22,856.42A26.42,26.42,0,0,1,447,859.24q-146.76-.09-293.54,0c-1.86,0-3.74-.19-5.59-.05-2.15.15-2.82-.82-2.66-2.78.07-.78,0-1.57,0-2.35q0-98.73-.08-197.47a61.25,61.25,0,0,1,2.41-15.88c.59-2.19,3.26-4.43,5.18-6.48a28.55,28.55,0,0,1,22-9.36c49,.13,98.05.06,147.07.06q75,0,150-.07c2.84,0,3.6.72,3.6,3.57q-.06,83.55.06,167.11c0,11,0,22,0,33C475.54,841.4,470.05,851,458.22,856.42Z" transform="translate(-128.65 -606)" fill="#fff"/><path d="M515.44,606a10.66,10.66,0,0,0-11.05,10.84c0,6.51,4.58,11.57,10.81,11.33,6.92-.25,10.94-4.08,11.2-12C526.57,611.08,521,606,515.44,606Zm-.37,20c-4.84,0-9.45-4.21-9.25-8.77s3.9-9.57,9.35-9.45a9.47,9.47,0,0,1,9.35,9.33C524.47,622.53,520.73,626,515.07,626Z" transform="translate(-128.65 -606)" fill="#fff"/><path d="M519.1,616.83c1.61-1.15,1.69-2.92,1-4.76-.77-2.13-2.54-1.43-4-1.44-5.81,0-5.81,0-5.75,5.86,0,1.18-.07,2.35,0,3.52s-.47,2.72,1.3,2.68c1.48,0,1.1-1.53,1.21-2.56.09-.81-.35-1.93.83-2.23,1-.26,1.62.51,2.17,1.21.37.46.63,1,1,1.43,1,1.18,2.07,3.47,3.79,2,1.32-1.1-.71-2.45-1.51-3.55C518.65,618.28,517.65,617.86,519.1,616.83Zm-3.84-1.49c-1.14-.07-2.3.22-2.26-1.34s1.31-1.4,2.32-1.43,2.48-.16,2.45,1.33C517.74,615.59,516.13,615.14,515.26,615.34Z" transform="translate(-128.65 -606)" fill="#fff"/><path d="M227.82,807.26c-1.76-3.36-3.55-6.79-7.29-9.06,12.24-5.15,17.69-19.21,12.79-31.84-2.91-7.5-9-12.15-16.65-14.16-14.38-3.78-28.81-2-43.12.74-1.25.24-4.11-.17-4.1,3,.09,22.68,0,45.36.14,68,0,3.89,1.93,7,5.22,9.4,3.83,2.83,8.08,2.64,12.39,2.58,6.13-.08,5.63,1,5.64-5.66,0-7.85,0-15.71,0-23.56,0-.85-.68-2.36,1.31-2.2,5,.4,9.52,1.48,11.66,6.84.94,2.35,2.14,4.61,3.25,6.9,2.24,4.63,3.52,9.77,7.19,13.64,4.55,4.79,18,6.37,23.86,2.88,1.24-.74,1-1.47.43-2.4C235.45,824.47,232.18,815.59,227.82,807.26ZM207.73,786.2c-2.38,1.94-5,1.82-7.79,1.76-7.1-.16-7.1-.17-7.1-7.16v-2.35c0-2.35,0-4.7,0-7,0-1.48.54-1.91,2-2.21,3.54-.74,7.05-.23,10.49.21s5.53,3,6.13,6.31C212.16,779.83,211.14,783.41,207.73,786.2Z" transform="translate(-128.65 -606)" fill="#fff"/><path d="M397.05,748.35c-3.66-3.13-7.9-3.07-12.2-3.1-6.64,0-5.63-.53-5.67,5.6,0,7.34,0,14.68,0,22.29-.74-.21-1-.2-1.09-.32-11.08-11.35-33.15-5.89-41,6.46a47,47,0,0,0-6.85,20.38c-1.78,15.72,9.18,32.37,24.39,36.7a47.48,47.48,0,0,0,20.13.85c17-2.52,24.88-12,26.57-26.92,1.94-17.08.67-34.32.63-51.5A13.28,13.28,0,0,0,397.05,748.35ZM376.5,815.07c-3.71,6.25-13.78,6.51-18.67.52a18.53,18.53,0,0,1-4.07-13.44,19.93,19.93,0,0,1,2.82-12.37c3.91-6.33,13.91-6.78,18.42-.87S380.32,808.66,376.5,815.07Z" transform="translate(-128.65 -606)" fill="#fff"/><path d="M311.85,779.42a107.74,107.74,0,0,0-9.69-19.76c-6.74-10.26-22.68-11.17-30.27-1.7a83.11,83.11,0,0,0-10.27,16.78A186.13,186.13,0,0,0,250.31,805c-1.91,7-3.93,14-3.89,21.36a9.42,9.42,0,0,0,9.49,9.57c2.55.08,5.13-.12,7.66.12,2.77.26,3.71-.9,4.11-3.53.71-4.54,1.76-9,2.78-13.52.33-1.4.81-2.71,2.86-2.69,8.16.11,16.31.06,24.47,0,1.2,0,2.06.23,2.37,1.59.69,3,1.73,5.86,2.13,8.85a10.17,10.17,0,0,0,5,7.48c3.8,2.48,8.05,2,12.23,2.21,1.86,0,3.73,0,5.6,0,1.23,0,2.36-.19,2-2-.7-3.75-1.13-7.56-2-11.28A302.65,302.65,0,0,0,311.85,779.42Zm-19.09,18.13c-4.8-.09-9.6-.16-14.4-.15-1.78,0-2.07-1-1.57-2.26,2.77-7.1,4.71-14.53,8.86-21.48a137,137,0,0,1,8.72,21.44C294.86,796.58,294.69,797.58,292.76,797.55Z" transform="translate(-128.65 -606)" fill="#fff"/><path d="M278.28,710.73l18,.15a1.19,1.19,0,0,0,1.32-.93,1.07,1.07,0,0,0-.79-1.38c-2.19-.44-2-2.15-2-3.7,0-7.17,0-14.34,0-21.51h0v-22.1c0-1.39-.16-2.75,2-2.72,7.37.1,14.74-.08,22.1.13,5,.14,8.41,3.1,10.41,7.47,1.46,3.18-.39,9-3.27,11.56-2.44,2.2-3.29,2.14-5.14-.49-2.43-3.44-4.87-6.88-7.19-10.39a4.27,4.27,0,0,0-4.1-2.23c-3.14.1-6.28-.05-9.42-.15-.86,0-1.85-.52-2.42.39s.18,1.74.73,2.35c3,3.33,4.4,7.78,7.74,10.88.48.45,1.3,1.14.88,2s-1.23.43-1.88.46c-4.74.26-4.75.25-4.71,5.11a17.69,17.69,0,0,1,0,2.06c-.21,2,.55,2.85,2.66,2.76,2.74-.13,5.5.12,8.25,0a4.73,4.73,0,0,1,4.65,2.37c2.76,4.24,5.25,8.67,8.46,12.62a2.21,2.21,0,0,1-.26,3.39c-1.32,1.14-.85,1.93.74,1.95,6.28.1,12.57.11,18.85.14.59,0,1.26,0,1.47-.7.27-.88-.43-1.21-1.07-1.48a9.62,9.62,0,0,1-3.92-3.47c-3.44-4.77-6.78-9.62-10.22-14.39-.91-1.27-.75-1.92.64-2.71a21.76,21.76,0,0,0,6.89-5.84c5.06-6.82,6.09-14.44,2.48-21.94-3.72-7.73-10.23-12.17-19.23-12.21-11.49,0-23-.19-34.46-.29-2.56,0-5.11,0-7.67,0-.69,0-1.42.09-1.65.92a1.18,1.18,0,0,0,.77,1.42c1.7.85,1.86,2.42,1.86,4q0,24.9,0,49.8c0,1.79,0,3.58-2,4.5a1.12,1.12,0,0,0-.64,1.47A1.16,1.16,0,0,0,278.28,710.73Z" transform="translate(-128.65 -606)" fill="#fff"/><path d="M447.63,819.13c-5.56-.08-7.72-2.48-7.73-8.09v-12.8c-.27-5.06.46-10.87-.53-16.63-1.06-6.19-4.05-9-10.05-10.18a40.25,40.25,0,0,0-8.75-.45c-4.31.08-4.31.07-4.31,4.47,0,12,0,24,0,35.95a43.32,43.32,0,0,0,1.64,13.38,15.44,15.44,0,0,0,6.74,8.83,26.42,26.42,0,0,0,16.45,3.32,12.93,12.93,0,0,0,7.1-2.57c3.56-2.89,3.85-6.7,3.62-10.91C451.57,819.44,452.08,819.19,447.63,819.13Z" transform="translate(-128.65 -606)" fill="#fff"/><path d="M416.91,760.11c.33,1.27.42,2.33,1.89,2.43a1.84,1.84,0,0,0,2.15-2.16c-.08-1.22.1-1.8,1.52-1.77,3.53.08,7.06,0,10.58,0,1.49,0,2.72-.09,2.39,2.12-.21,1.43,1,2.1,2.3,2a1.81,1.81,0,0,0,1.73-2.47,2.93,2.93,0,0,1,.27-2.24c1-1.73,0-2.35-1.57-2.38-2.74-.06-5.49,0-8.23,0v.06c-2.36,0-4.71,0-7.07,0-.93,0-2.34.76-2.57-1-.26-1.89,1.34-1.6,2.4-1.72,5.74-.69,11.48-1.39,17.24-1.93,2.22-.21,3.14-1.14,3-3.36a64.46,64.46,0,0,1-.16-7.35c.12-2.35-.79-3.05-3.07-3-6.77.11-13.54,0-20.31,0-.94,0-2.25.39-2.69-.65-1.37-3.28-4.14-1.79-6.37-2-1-.1-2,.21-1.9,1.62s1.12,1.15,1.94,1.22a21.3,21.3,0,0,0,2.65,0c1.31-.06,1.91.45,2.08,1.82a80.62,80.62,0,0,0,1.66,10.43C417.71,753.23,416,756.63,416.91,760.11Z" transform="translate(-128.65 -606)" fill="#fff"/><path d="M250.18,946.38c-5.69,0-7-2.43-7-6.26V928.68c0-4-1.35-5.47-4.45-5.47s-4,2.2-4,5.3v17.87H231c-4.33,0-6.64-1.41-6.64-6.26V928.4c0-3.67-1.41-5.19-4.23-5.19-3,0-4.17,1.52-4.17,5.36v17.81h-3.72c-4.79,0-7-2.31-7-6.26V929.24c0-9,5.18-14.77,15.05-14.77,4.84,0,8.51,3,9.52,5.53,1.47-2.37,5.24-5.53,9.7-5.53,9,0,14.37,5.36,14.37,15v16.86Z" transform="translate(-128.65 -606)" fill="#fff"/><path d="M274.28,934.71h-4.62c.62,3.1,3.16,4.56,7.61,4.56,5,0,8.06-.78,9.81-2h.39v2.48c0,4-3.21,7.5-12.06,7.5-10.71,0-16.34-7.22-16.34-15.78,0-9.42,6.36-17.08,15.95-17.08,8.11,0,14.43,4.56,14.43,12.46C289.45,933.07,284.77,934.71,274.28,934.71Zm.74-12.29c-3.78,0-5.36,2.42-5.64,5.41h4.17c5.07,0,6-.79,6-2.14C279.53,924.11,278.12,922.42,275,922.42Z" transform="translate(-128.65 -606)" fill="#fff"/><path d="M313.44,923.38a9.61,9.61,0,0,0-3.77-.62c-2.6,0-4.63,1.3-4.63,5.07v18.55h-2.93c-4.62,0-7.44-2.15-7.44-7.33V925.58c0-6.26,4.23-11.22,11.27-11.22,5.36,0,7.84,2.2,7.84,5.07v4Z" transform="translate(-128.65 -606)" fill="#fff"/><path d="M341.78,925.52c-.95-1-3.89-2.14-6.87-2.14-5.24,0-8.17,2.65-8.17,7,0,5.29,2.93,7.78,7.66,7.78a14.37,14.37,0,0,0,7.49-1.75H342v3.21c0,4.12-4.23,7.44-9.86,7.44-9.42,0-16.12-6.37-16.12-16.06,0-8.85,6.14-16.46,17.07-16.46,4.91,0,9,3.21,9,7.22v3.77Z" transform="translate(-128.65 -606)" fill="#fff"/><path d="M359,947.22c-6,0-13.24-2.82-13.24-9.86,0-6.88,5-10.37,16.23-10.37h1.52v-1.3c0-2.53-2-3.16-6.2-3.16-5.8,0-7.94,1.36-10.14,3.39h-.28v-3.78c0-3.83,4-7.67,12.85-7.67,8.56,0,14.14,4.35,14.14,13.47v4.8C373.84,944,370.24,947.22,359,947.22Zm4.74-13.58h-2.15c-4.05,0-5.69,1-5.69,3.1s1.24,3,4.23,3c1.92,0,3.61-1,3.61-3.77Z" transform="translate(-128.65 -606)" fill="#fff"/><path d="M394.8,947.28a16.16,16.16,0,0,1-16.18-15.89c0-10.43,6.43-16.92,14.66-16.92,3.94,0,6.87,1.75,8,4.18v-14h3.83c4.28,0,6.59,2.25,6.59,7.49v18C411.7,941.36,407.14,947.28,394.8,947.28Zm-.23-24.52c-2.87,0-5.3,3-5.3,7.72,0,6.09,2.82,8.57,6.71,8.57,3.32,0,5.07-2.59,5.07-7.44C401.05,924.68,398.4,922.76,394.57,922.76Z" transform="translate(-128.65 -606)" fill="#fff"/><path d="M433.73,914.53a15.83,15.83,0,0,1,16.06,16c0,10.14-6.14,16.68-16.85,16.68-8.85,0-16.06-6.54-16.06-15.67C416.88,921.3,424,914.53,433.73,914.53Zm-.68,8.45c-2.93,0-5.58,3.11-5.58,7.33,0,6,2.37,8.57,6.15,8.57,3.38,0,5.58-3.1,5.58-7.38C439.2,925.92,436.77,923,433.05,923Z" transform="translate(-128.65 -606)" fill="#fff"/></svg>