<svg xmlns="http://www.w3.org/2000/svg" viewBox="0 0 79.8 70.32"><defs><style>.cls-1{fill:#169fdb;}.cls-2{fill:#a31008;}.cls-3{fill:#575756;}</style></defs><title>Recurso 28</title><g id="Capa_2" data-name="Capa 2"><g id="Capa_1-2" data-name="Capa 1"><path class="cls-1" d="M21.94,50.48a3.31,3.31,0,0,1-3.32-1.95l-1.37-3c-.72-1.58-1.23-1.87-2.43-2L14,43.41v6.94H12.06a2.83,2.83,0,0,1-3.13-2.92v-15a22.53,22.53,0,0,1,5.54-.8h2.06c4,0,6.77,2.17,6.77,5.51,0,2.47-1.6,4.55-3.37,5,.88.4,1.34,1.07,2,2.54l1.42,3a14.8,14.8,0,0,0,1.29,2.25V50a6.46,6.46,0,0,1-2.73.48M15,35.62c-.21,0-.64.06-1,.11V39.8a16.08,16.08,0,0,0,2,.08,2.09,2.09,0,0,0,2.17-2.14,1.9,1.9,0,0,0-2.15-2.12Z"/><path class="cls-1" d="M41.19,50.35c-1.84,0-2.81-.54-3.13-2.2-.13-.67-.29-1.39-.51-2.17H31.18c-.4,1.34-.72,3.22-.94,4.37H28.18a2.08,2.08,0,0,1-2.35-2.28c0-2.44,2.38-10.86,5.55-14.73a3.61,3.61,0,0,1,3.15-1.46,4.07,4.07,0,0,1,3.59,1.92A52.21,52.21,0,0,1,43.5,50.35ZM34.42,36.48A32.82,32.82,0,0,0,32.28,42h4.23a36.28,36.28,0,0,0-2.09-5.52"/><path class="cls-1" d="M51.89,50.78a7.67,7.67,0,0,1-7.68-7.55c0-5,3-8,7-8a4,4,0,0,1,3.8,2V30.54h1.82c2,0,3.13,1.07,3.13,3.56v8.54c0,5.33-2.17,8.14-8,8.14m-.11-11.65c-1.36,0-2.51,1.42-2.51,3.67,0,2.89,1.34,4.07,3.18,4.07,1.58,0,2.41-1.23,2.41-3.54,0-3.29-1.25-4.2-3.08-4.2"/><path class="cls-1" d="M67.93,50.56c-2.71,0-4.82-1.34-4.82-4.82V36.08h1.26c2.89,0,3.82.83,3.82,3.51V45c0,1.32.62,1.72,2,1.72h.61v1.5c0,1.76-1.33,2.35-2.91,2.35"/><path class="cls-2" d="M67.69,34.31a.46.46,0,0,1-.46-.46.45.45,0,0,1,.28-.42l-3.72,0a.46.46,0,0,1,.31.44.45.45,0,0,1-.46.46.46.46,0,0,1-.46-.46.47.47,0,0,1,.31-.44h-.13A.33.33,0,0,1,63,33.1a.61.61,0,0,1,.14-.35.43.43,0,0,1,0-.07l0,0a.26.26,0,0,0,0-.25.43.43,0,0,0,0,0l-.53-3.55H61.62a.31.31,0,0,1,0-.62h1.12a.32.32,0,0,1,.31.26l.05.19a.14.14,0,0,0,.14.14h5.3a.31.31,0,0,1,.31.32v2.27a.31.31,0,0,1-.31.31l-4.67.55a.74.74,0,0,1,.05.25.81.81,0,0,1-.08.34H68a.32.32,0,1,1,0,.63h-.08a.46.46,0,0,1-.19.88"/><path class="cls-1" d="M46.76,22.26a8.27,8.27,0,0,1-1-1.27l-2.56-3.81q3.55-.62,3.56-3.89a4.72,4.72,0,0,0-.37-1.84A3.16,3.16,0,0,0,45.17,10a4.4,4.4,0,0,0-1.6-.63,13.48,13.48,0,0,0-2.48-.18l-8,0h-.6v.42a.6.6,0,0,1,.6.6V21.9a.6.6,0,0,1-.6.61v.41H37v-.39a.69.69,0,0,1-.47-.22.68.68,0,0,1-.17-.45V11.48s5.62,0,5.9,0a1.86,1.86,0,0,1,.76.26,1.77,1.77,0,0,1,.77,1.48A1.7,1.7,0,0,1,43,14.75a1.81,1.81,0,0,1-.77.26l-.48,0-1.64-2.23H36.8l1.65,2.25h-.8v2.25H40l2.7,4,.25.39c.15.24.17.28.17.43s-.12.35-.46.41v.34h5v-.34a1.3,1.3,0,0,1-.8-.32"/><path class="cls-2" d="M69.46,59.21H0V10.39A10.35,10.35,0,0,1,10.28,0H79.8V48.77A10.4,10.4,0,0,1,69.46,59.21M2.32,56.79H69.46a7.66,7.66,0,0,0,7.93-8V2.66H10.28a7.69,7.69,0,0,0-8,7.67Z"/><path class="cls-1" d="M69.79,56.79H2.32V10.33A7.63,7.63,0,0,1,9.9,2.66H77.39V49.12a7.64,7.64,0,0,1-7.6,7.67M3.63,55.46H69.79a6.31,6.31,0,0,0,6.28-6.34V4H9.9a6.31,6.31,0,0,0-6.27,6.34Z"/><path class="cls-3" d="M8.33,65.28a.93.93,0,0,1,1,1,.86.86,0,0,1-.39.8v0A.87.87,0,0,1,9.5,68a1,1,0,0,1-1.14,1H6.92c-.13,0-.18,0-.18-.18V65.46c0-.13,0-.18.18-.18Zm-.08,1.56a.47.47,0,0,0,0-.94H7.38v.94Zm.09.61h-1v1h1A.43.43,0,0,0,8.82,68c0-.33-.16-.5-.48-.5"/><path class="cls-3" d="M12.47,66.3c.12,0,.16,0,.16.16v2.2a.27.27,0,0,1-.2.3,2.66,2.66,0,0,1-1,.19,1,1,0,0,1-1.06-1.07V66.46c0-.12,0-.16.16-.16h.28c.12,0,.15,0,.15.16v1.59c0,.36.18.53.56.53a1.6,1.6,0,0,0,.46-.06.09.09,0,0,0,.06-.09v-2c0-.12,0-.16.16-.16Z"/><path class="cls-3" d="M13.53,67.38a1.05,1.05,0,0,1,1.18-1.16,1.05,1.05,0,0,1,1.17,1.11v.32c0,.16-.07.23-.23.23H14.12v.2c0,.35.2.53.58.53a.65.65,0,0,0,.6-.28c.08-.12.13-.13.26-.06l.17.1c.12.06.14.14.06.27a1.14,1.14,0,0,1-1.09.51A1,1,0,0,1,13.53,68Zm1.76-.09c0-.35-.2-.54-.58-.54s-.59.19-.59.54v.12h1.17Z"/><path class="cls-3" d="M18,66.22A1,1,0,0,1,19,67.3v1.6c0,.13-.05.17-.16.17h-.28c-.12,0-.15,0-.15-.17V67.31c0-.34-.19-.52-.56-.52a1.66,1.66,0,0,0-.49.07.05.05,0,0,0,0,0v2c0,.13,0,.17-.16.17H16.9c-.11,0-.15,0-.15-.17V66.71c0-.17,0-.24.19-.3a2.46,2.46,0,0,1,1-.19"/><path class="cls-3" d="M19.89,67.29a1,1,0,0,1,1.17-1.07,1,1,0,0,1,1.18,1.07v.79a1,1,0,0,1-1.18,1.07,1,1,0,0,1-1.17-1.07Zm1.76,0c0-.32-.22-.51-.59-.51s-.58.19-.58.51v.79c0,.32.21.51.58.51s.59-.19.59-.51Z"/><path class="cls-3" d="M23.42,69.55c0,.13-.08.17-.19.17h-.11c-.1,0-.13,0-.11-.12l.13-1c0-.15.07-.19.21-.19h.22c.15,0,.21.07.16.19Z"/><path class="cls-3" d="M27.54,65.2a1.29,1.29,0,0,1,1.34.8.17.17,0,0,1-.1.25l-.28.13c-.12.05-.16,0-.22-.09a.73.73,0,0,0-.74-.45c-.5,0-.74.16-.74.49s.27.41.54.45.52.08.71.12a1.35,1.35,0,0,1,.64.3A1,1,0,0,1,29,68c0,.73-.53,1.2-1.45,1.2a1.3,1.3,0,0,1-1.4-.89c0-.14,0-.2.11-.24l.28-.1c.12,0,.16,0,.22.11a.77.77,0,0,0,.79.49c.54,0,.81-.18.81-.55a.46.46,0,0,0-.4-.43,2.47,2.47,0,0,0-.4-.07,4.85,4.85,0,0,1-.55-.08,1.29,1.29,0,0,1-.49-.22,1,1,0,0,1-.35-.8c0-.7.51-1.17,1.4-1.17"/><path class="cls-3" d="M29.73,67.38a1.18,1.18,0,0,1,2.35,0v.32c0,.16-.07.23-.23.23H30.32v.2c0,.35.2.53.58.53a.65.65,0,0,0,.6-.28c.08-.12.13-.13.26-.06l.17.1c.12.06.14.14.07.27a1.17,1.17,0,0,1-1.1.51A1,1,0,0,1,29.73,68Zm1.76-.09c0-.35-.2-.54-.58-.54s-.59.19-.59.54v.12h1.17Z"/><path class="cls-3" d="M34.15,66.22a1,1,0,0,1,1.06,1.08v1.6c0,.13,0,.17-.16.17h-.28c-.12,0-.15,0-.15-.17V67.31c0-.34-.19-.52-.56-.52a1.71,1.71,0,0,0-.49.07.05.05,0,0,0,0,0v2c0,.13,0,.17-.16.17H33.1c-.11,0-.15,0-.15-.17V66.71c0-.17,0-.24.19-.3a2.46,2.46,0,0,1,1-.19"/><path class="cls-3" d="M36.09,67.32a1,1,0,0,1,1.17-1.1,1.05,1.05,0,0,1,1.09.7c0,.14,0,.19-.11.24l-.23.08c-.12.05-.17,0-.22-.11a.53.53,0,0,0-.55-.36c-.38,0-.56.17-.56.52v.79c0,.34.19.52.56.52a.53.53,0,0,0,.55-.36c.05-.13.1-.15.22-.11l.23.07c.12,0,.16.13.11.24a1.08,1.08,0,0,1-1.13.71,1,1,0,0,1-1.13-1.1Z"/><path class="cls-3" d="M39.53,65.27c.23,0,.31.08.31.32v0c0,.25-.08.32-.31.32h0c-.23,0-.31-.07-.31-.32v0c0-.24.07-.32.31-.32Zm.12,1c.11,0,.16,0,.16.16V68.9c0,.13-.05.17-.16.17h-.28c-.12,0-.15,0-.15-.17V66.46c0-.12,0-.16.15-.16Z"/><path class="cls-3" d="M41.4,68.9c0,.13,0,.17-.16.17H41c-.12,0-.16,0-.16-.17V65.28c0-.12,0-.16.16-.16h.27c.12,0,.16,0,.16.16Z"/><path class="cls-3" d="M43,68.9c0,.13,0,.17-.16.17h-.27c-.12,0-.16,0-.16-.17V65.28c0-.12,0-.16.16-.16h.27c.12,0,.16,0,.16.16Z"/><path class="cls-3" d="M44,67.29a1.17,1.17,0,0,1,2.34,0v.79a1.17,1.17,0,0,1-2.34,0Zm1.75,0c0-.32-.21-.51-.58-.51s-.58.19-.58.51v.79c0,.32.21.51.58.51s.58-.19.58-.51Z"/><path class="cls-3" d="M50.83,66.3c.11,0,.15,0,.15.16v2.7a1,1,0,0,1-1.12,1.16,1.11,1.11,0,0,1-1-.51.17.17,0,0,1,.06-.27l.2-.11c.12-.06.17-.05.25.06a.57.57,0,0,0,.53.28c.37,0,.54-.19.54-.58v-.25a2.52,2.52,0,0,1-.6.07,1,1,0,0,1-1.07-1.07V66.46c0-.12.05-.16.16-.16h.28c.12,0,.16,0,.16.16v1.46c0,.35.18.53.55.53a1.93,1.93,0,0,0,.52-.08V66.46c0-.12,0-.16.16-.16Z"/><path class="cls-3" d="M55.12,65.28a.93.93,0,0,1,1,1,.85.85,0,0,1-.38.8v0a.88.88,0,0,1,.52.93,1,1,0,0,1-1.15,1H53.71c-.13,0-.18,0-.18-.18V65.46c0-.13,0-.18.18-.18ZM55,66.84a.47.47,0,0,0,0-.94h-.87v.94Zm.1.61h-1v1h1a.43.43,0,0,0,.48-.49c0-.33-.16-.5-.48-.5"/><path class="cls-3" d="M58.2,66.22a1,1,0,0,1,1.09,1.1v1.39c0,.18,0,.24-.19.3a2.3,2.3,0,0,1-.91.14,1.33,1.33,0,0,1-.89-.22.8.8,0,0,1-.25-.65c0-.63.33-.86,1.16-.86l.49,0V67.3c0-.35-.15-.53-.51-.53a.6.6,0,0,0-.54.26c-.07.11-.1.12-.21.08L57.23,67a.15.15,0,0,1-.08-.24,1.06,1.06,0,0,1,1.05-.56M58.7,68l-.56,0c-.36,0-.49.11-.49.35s.11.36.48.36a2.17,2.17,0,0,0,.51,0,.07.07,0,0,0,.06-.07Z"/><path class="cls-3" d="M61.54,66.22c.11,0,.15,0,.15.17v.23c0,.13,0,.17-.15.17h-.19a1.7,1.7,0,0,0-.48.06s0,0,0,.07v2c0,.13,0,.17-.15.17h-.28c-.12,0-.16,0-.16-.17V66.69a.27.27,0,0,1,.2-.31,3,3,0,0,1,.94-.16Z"/><path class="cls-3" d="M63.41,66.22a1,1,0,0,1,1.09,1.1v1.39c0,.18,0,.24-.19.3a2.3,2.3,0,0,1-.91.14,1.33,1.33,0,0,1-.89-.22.8.8,0,0,1-.25-.65c0-.63.33-.86,1.16-.86l.49,0V67.3c0-.35-.14-.53-.51-.53a.6.6,0,0,0-.54.26c-.07.11-.1.12-.21.08L62.44,67a.15.15,0,0,1-.08-.24,1.06,1.06,0,0,1,1-.56m.5,1.74-.56,0c-.36,0-.49.11-.49.35s.11.36.48.36a2.17,2.17,0,0,0,.51,0,.07.07,0,0,0,.06-.07Z"/><path class="cls-3" d="M66.12,65.66c.11,0,.15,0,.15.16v.48h.58c.12,0,.16,0,.16.16v.25c0,.12,0,.16-.16.16h-.58V68a.65.65,0,0,0,.13.49.61.61,0,0,0,.45.12c.12,0,.16,0,.16.17V69c0,.13,0,.17-.16.17a1.18,1.18,0,0,1-.9-.23,1.29,1.29,0,0,1-.27-.94v-1.1h-.35c-.11,0-.15,0-.15-.16v-.25c0-.12,0-.16.15-.16h.35v-.48c0-.12,0-.16.16-.16Z"/><path class="cls-3" d="M67.73,67.29a1.18,1.18,0,0,1,2.35,0v.79a1.18,1.18,0,0,1-2.35,0Zm1.75,0c0-.32-.21-.51-.58-.51s-.58.19-.58.51v.79c0,.32.21.51.58.51s.58-.19.58-.51Z"/></g></g></svg>