<svg xmlns="http://www.w3.org/2000/svg" width="20.85cm" height="16.05cm" viewBox="0 0 590.96 454.92">
  <path
    d="M206.1,181.11c0-3.42-.12-5.73,0-8,.87-14,10.26-23.93,24.18-24.8a218.37,218.37,0,0,1,26.34,0c14.21.81,23.77,11.12,24.26,25.32.08,2.26.24,4.51.35,6.64,23.9,4.06,38.19-3,48.43-24,10.14-20.74,26.47-31.24,49.73-31.11q45.43.24,90.86,0C493.48,125,510.43,135,520,156c8.08,17.71,21.05,25.53,40.49,25.19,33.75-.59,67.51-.2,101.27-.15s58.53,24.35,58.59,58q.24,141.49,0,283c-.06,34.08-25,57.9-60.1,57.91q-185.89.07-371.79,0-49.24,0-98.49,0c-36.48-.06-60.43-24-60.44-60.4q0-140.46.1-280.92c.05-32.9,24.83-57.41,57.55-57.55C193.18,181.09,199.15,181.11,206.1,181.11ZM424.72,567q117.59,0,235.16,0c29.42,0,47.47-18.15,47.48-47.65q0-138.38,0-276.77c0-30.81-17.88-48.68-48.62-48.7-34,0-68,0-102-.06a60.73,60.73,0,0,1-13.07-1.16c-16.86-3.78-27.88-14.48-34.83-30-7.63-17-20.89-25-39.58-24.8-29.82.27-59.65.06-89.48.12a51.81,51.81,0,0,0-9.65.68c-14.7,2.8-23.77,12.15-29.84,25.37-9.22,20.11-25.05,30-47.29,29.87-33.53-.17-67.08.77-100.58-.29-29.64-.93-50.48,20.2-50.21,49.8.83,91.56.35,183.13.37,274.69,0,31.28,17.65,48.89,49,48.89Q308.18,567,424.72,567ZM267.5,180.78c1.84-14.28-2.66-19.45-16.28-19.47-5.53,0-11.06,0-16.58,0-12.74.07-17.58,6.55-14.27,19.47Z"
    transform="translate(-129.54 -125.09)" fill="#119ed9" />
  <path
    d="M425,250.94c71.5,0,129.67,58.43,129.38,129.93A129.33,129.33,0,0,1,425,509.92c-71.65,0-129.74-58.28-129.39-129.78S353.86,250.91,425,250.94ZM308.46,380.27c0,64.16,52.28,116.68,116.3,116.78s116.62-52.24,116.77-116.32-52.16-116.6-116.3-116.66S308.49,316.24,308.46,380.27Z"
    transform="translate(-129.54 -125.09)" fill="#119ed9" />
  <path
    d="M218.72,380.47c0,18.49.14,37,0,55.46-.24,25.58-11.79,44.56-34.06,57-5.44,3-11,5.95-16.48,8.85-3.81,2-7.39,1.65-9.49-2.35s-.31-7.08,3.49-9.13c5.69-3.07,11.42-6.07,17-9.27,17.09-9.69,26.36-24.48,26.55-44.06q.56-56.49,0-113c-.18-19.6-9.48-34.36-26.5-44.11-5.8-3.33-12.1-5.93-17.48-9.82-2.05-1.49-2.17-5.64-3.18-8.58,3-.9,6.78-3.43,8.78-2.42,9.84,5,20,10,28.57,16.79,15.64,12.26,22.78,29.24,22.8,49.13Q218.75,352.75,218.72,380.47Z"
    transform="translate(-129.54 -125.09)" fill="#119ed9" />
  <path
    d="M631.26,380.31q0-27,0-54.07c0-26.77,12-46.35,35.5-59,5.08-2.73,10.12-5.55,15.26-8.17,3.81-1.95,8-1.63,9.14,2.66.67,2.44-1,6.92-3.06,8.44-5.18,3.77-11.26,6.28-16.89,9.46-17.58,9.93-26.89,25-27,45.22q-.36,55.8,0,111.61c.16,19.86,9.34,34.87,26.71,44.68,5.63,3.17,11.35,6.19,17,9.27,3.85,2.09,5.43,5.28,3.28,9.2s-5.78,4.19-9.55,2.12c-7.49-4.11-15.31-7.73-22.35-12.5-18.52-12.57-27.87-30.37-28.05-52.78C631.15,417.74,631.27,399,631.26,380.31Z"
    transform="translate(-129.54 -125.09)" fill="#119ed9" />
  <path
    d="M424.93,193.86c-12.24,0-24.49-.05-36.73,0-4.56,0-8.76-.7-8.82-6.29S383.31,181,388,181q37.06.08,74.15,0c4.71,0,8.57,1.17,8.47,6.67-.1,5.13-3.86,6.18-8.25,6.16C449.88,193.82,437.4,193.85,424.93,193.86Z"
    transform="translate(-129.54 -125.09)" fill="#119ed9" />
  <path
    d="M424.89,284.6a95.93,95.93,0,1,1-95.76,96.34A95.73,95.73,0,0,1,424.89,284.6Zm-.14,178.78c45.75.15,83.2-37,83.27-82.65s-37.19-83.12-82.8-83.21S342.1,334.63,342,380.26,379,463.23,424.75,463.38Z"
    transform="translate(-129.54 -125.09)" fill="#119ed9" />
  <path
    d="M425.56,371.92l25.08-25.86c3.11-3.2,6.57-5.92,10.64-1.91s1.39,7.53-1.77,10.65c-8.37,8.26-16.76,16.5-25.81,25.4l21.64,21.87c2,2,4.67,3.62,5.65,6,1.05,2.53,1.65,6.59.32,8.46-2.61,3.63-6.56,2.51-9.56-.44q-10.12-10-20.06-20.1c-1.93-2-3.5-4.3-5.92-7.32l-22.3,22.19c-1.8,1.79-3.28,4.38-5.44,5.2-2.82,1.07-7,2-9.09.71-3.89-2.47-2.53-6.4.46-9.41,7.8-7.87,15.65-15.7,23.45-23.56.95-1,1.77-2,3.36-3.92-7.27-7-14.37-13.91-21.45-20.78-1.49-1.45-2.95-2.93-4.42-4.4-3.19-3.18-5.68-6.71-1.54-10.65,3.76-3.59,7.13-1.42,10.17,1.65q10.25,10.32,20.58,20.55C421.17,367.83,422.86,369.36,425.56,371.92Z"
    transform="translate(-129.54 -125.09)" fill="#b12028" />
</svg>